<mxfile host="65bd71144e">
    <diagram id="VR1NBB56KyZQFqz4awbL" name="Page-1">
        <mxGraphModel dx="1538" dy="976" grid="1" gridSize="10" guides="1" tooltips="1" connect="1" arrows="1" fold="1" page="1" pageScale="1" pageWidth="850" pageHeight="1100" math="0" shadow="0">
            <root>
                <mxCell id="0"/>
                <mxCell id="1" parent="0"/>
                <mxCell id="2" value="Pool" style="swimlane;childLayout=stackLayout;resizeParent=1;resizeParentMax=0;startSize=20;" vertex="1" parent="1">
                    <mxGeometry x="84" y="10" width="720" height="480" as="geometry"/>
                </mxCell>
                <mxCell id="3" value="Controller" style="swimlane;startSize=20;" vertex="1" parent="2">
                    <mxGeometry y="20" width="120" height="460" as="geometry"/>
                </mxCell>
                <mxCell id="17" value="Recept" style="rounded=1;whiteSpace=wrap;html=1;" vertex="1" parent="3">
                    <mxGeometry x="20" y="210" width="80" height="40" as="geometry"/>
                </mxCell>
                <mxCell id="23" value="" style="ellipse;whiteSpace=wrap;html=1;aspect=fixed;" vertex="1" parent="3">
                    <mxGeometry x="45" y="45" width="30" height="30" as="geometry"/>
                </mxCell>
                <mxCell id="24" value="" style="ellipse;whiteSpace=wrap;html=1;aspect=fixed;" vertex="1" parent="3">
                    <mxGeometry x="45" y="396" width="30" height="30" as="geometry"/>
                </mxCell>
                <mxCell id="153" value="" style="endArrow=classic;html=1;" edge="1" parent="3">
                    <mxGeometry width="50" height="50" relative="1" as="geometry">
                        <mxPoint x="59.5" y="280" as="sourcePoint"/>
                        <mxPoint x="59.5" y="360" as="targetPoint"/>
                    </mxGeometry>
                </mxCell>
                <mxCell id="4" value="Business Logic" style="swimlane;startSize=20;" vertex="1" parent="2">
                    <mxGeometry x="120" y="20" width="480" height="460" as="geometry"/>
                </mxCell>
                <mxCell id="18" value="Selecteer&lt;br&gt;recept" style="rounded=1;whiteSpace=wrap;html=1;" vertex="1" parent="4">
                    <mxGeometry x="26" y="210" width="80" height="40" as="geometry"/>
                </mxCell>
                <mxCell id="20" value="" style="endArrow=classic;html=1;" edge="1" parent="4">
                    <mxGeometry width="50" height="50" relative="1" as="geometry">
                        <mxPoint x="-17" y="229.5" as="sourcePoint"/>
                        <mxPoint x="23" y="229.5" as="targetPoint"/>
                    </mxGeometry>
                </mxCell>
                <mxCell id="27" value="" style="edgeStyle=segmentEdgeStyle;endArrow=classic;html=1;" edge="1" parent="4">
                    <mxGeometry width="50" height="50" relative="1" as="geometry">
                        <mxPoint x="491" y="53" as="sourcePoint"/>
                        <mxPoint x="67" y="193" as="targetPoint"/>
                        <Array as="points">
                            <mxPoint x="67" y="53"/>
                            <mxPoint x="67" y="143"/>
                        </Array>
                    </mxGeometry>
                </mxCell>
                <mxCell id="28" value="Ophalen KeukenType" style="rounded=1;whiteSpace=wrap;html=1;fillColor=#d5e8d4;strokeColor=#82b366;" vertex="1" parent="4">
                    <mxGeometry x="300" y="111" width="80" height="40" as="geometry"/>
                </mxCell>
                <mxCell id="50" value="Ophalen ingredienten" style="rounded=1;whiteSpace=wrap;html=1;fillColor=#ffe6cc;strokeColor=#d79b00;" vertex="1" parent="4">
                    <mxGeometry x="300" y="191" width="80" height="40" as="geometry"/>
                </mxCell>
                <mxCell id="89" value="" style="endArrow=classic;html=1;entryX=1;entryY=0.5;entryDx=0;entryDy=0;" edge="1" parent="4" target="50">
                    <mxGeometry width="50" height="50" relative="1" as="geometry">
                        <mxPoint x="499" y="210.5" as="sourcePoint"/>
                        <mxPoint x="386" y="211" as="targetPoint"/>
                    </mxGeometry>
                </mxCell>
                <mxCell id="94" value="Ophalen Bereidingswijze" style="rounded=1;whiteSpace=wrap;html=1;fillColor=#e1d5e7;strokeColor=#9673a6;" vertex="1" parent="4">
                    <mxGeometry x="300" y="261" width="80" height="40" as="geometry"/>
                </mxCell>
                <mxCell id="95" value="Ophalen&amp;nbsp; Waardering" style="rounded=1;whiteSpace=wrap;html=1;fillColor=#e1d5e7;strokeColor=#9673a6;" vertex="1" parent="4">
                    <mxGeometry x="300" y="311" width="80" height="40" as="geometry"/>
                </mxCell>
                <mxCell id="96" value="Ophalen&amp;nbsp; Opmerkingen" style="rounded=1;whiteSpace=wrap;html=1;fillColor=#e1d5e7;strokeColor=#9673a6;" vertex="1" parent="4">
                    <mxGeometry x="300" y="361" width="80" height="40" as="geometry"/>
                </mxCell>
                <mxCell id="97" value="Ophalen&amp;nbsp; Favoriet" style="rounded=1;whiteSpace=wrap;html=1;fillColor=#e1d5e7;strokeColor=#9673a6;" vertex="1" parent="4">
                    <mxGeometry x="300" y="411" width="80" height="40" as="geometry"/>
                </mxCell>
                <mxCell id="157" value="" style="endArrow=classic;html=1;entryX=1;entryY=0.5;entryDx=0;entryDy=0;" edge="1" parent="4">
                    <mxGeometry width="50" height="50" relative="1" as="geometry">
                        <mxPoint x="499" y="130.5" as="sourcePoint"/>
                        <mxPoint x="380" y="131" as="targetPoint"/>
                    </mxGeometry>
                </mxCell>
                <mxCell id="158" value="" style="endArrow=classic;html=1;entryX=0;entryY=0.5;entryDx=0;entryDy=0;" edge="1" parent="4" target="28">
                    <mxGeometry width="50" height="50" relative="1" as="geometry">
                        <mxPoint x="106" y="231" as="sourcePoint"/>
                        <mxPoint x="156" y="181" as="targetPoint"/>
                    </mxGeometry>
                </mxCell>
                <mxCell id="159" value="" style="endArrow=classic;html=1;entryX=0;entryY=0.5;entryDx=0;entryDy=0;" edge="1" parent="4" target="50">
                    <mxGeometry width="50" height="50" relative="1" as="geometry">
                        <mxPoint x="106" y="230" as="sourcePoint"/>
                        <mxPoint x="290" y="201" as="targetPoint"/>
                    </mxGeometry>
                </mxCell>
                <mxCell id="160" value="" style="endArrow=classic;html=1;entryX=0;entryY=0.5;entryDx=0;entryDy=0;exitX=1;exitY=0.5;exitDx=0;exitDy=0;" edge="1" parent="4" source="18" target="94">
                    <mxGeometry width="50" height="50" relative="1" as="geometry">
                        <mxPoint x="106" y="269" as="sourcePoint"/>
                        <mxPoint x="300" y="250" as="targetPoint"/>
                    </mxGeometry>
                </mxCell>
                <mxCell id="162" value="" style="endArrow=classic;html=1;entryX=0;entryY=0.5;entryDx=0;entryDy=0;exitX=1;exitY=0.5;exitDx=0;exitDy=0;" edge="1" parent="4" source="18" target="96">
                    <mxGeometry width="50" height="50" relative="1" as="geometry">
                        <mxPoint x="86" y="261" as="sourcePoint"/>
                        <mxPoint x="280" y="362" as="targetPoint"/>
                    </mxGeometry>
                </mxCell>
                <mxCell id="163" value="" style="endArrow=classic;html=1;exitX=1;exitY=0.5;exitDx=0;exitDy=0;" edge="1" parent="4" source="18">
                    <mxGeometry width="50" height="50" relative="1" as="geometry">
                        <mxPoint x="106" y="280" as="sourcePoint"/>
                        <mxPoint x="300" y="431" as="targetPoint"/>
                    </mxGeometry>
                </mxCell>
                <mxCell id="5" value="Model" style="swimlane;startSize=20;" vertex="1" parent="2">
                    <mxGeometry x="600" y="20" width="120" height="460" as="geometry"/>
                </mxCell>
                <mxCell id="22" value="Gerecht" style="swimlane;" vertex="1" parent="5">
                    <mxGeometry x="20" y="30" width="80" height="60" as="geometry"/>
                </mxCell>
                <mxCell id="36" value="Selecteer KeukenType" style="rounded=1;whiteSpace=wrap;html=1;fillColor=#d5e8d4;strokeColor=#82b366;" vertex="1" parent="5">
                    <mxGeometry x="20" y="111" width="80" height="40" as="geometry"/>
                </mxCell>
                <mxCell id="88" value="Selecteer Ingredienten" style="rounded=1;whiteSpace=wrap;html=1;fillColor=#ffe6cc;strokeColor=#d79b00;" vertex="1" parent="5">
                    <mxGeometry x="20" y="191" width="80" height="40" as="geometry"/>
                </mxCell>
                <mxCell id="132" value="Selecteer info" style="rounded=1;whiteSpace=wrap;html=1;fillColor=#e1d5e7;strokeColor=#9673a6;" vertex="1" parent="5">
                    <mxGeometry x="20" y="331" width="80" height="40" as="geometry"/>
                </mxCell>
                <mxCell id="148" value="" style="endArrow=classic;html=1;entryX=1;entryY=0.5;entryDx=0;entryDy=0;" edge="1" parent="2">
                    <mxGeometry width="50" height="50" relative="1" as="geometry">
                        <mxPoint x="620" y="371" as="sourcePoint"/>
                        <mxPoint x="500" y="301" as="targetPoint"/>
                    </mxGeometry>
                </mxCell>
                <mxCell id="7" value="Ophalen Keuken" style="swimlane;childLayout=stackLayout;resizeParent=1;resizeParentMax=0;startSize=20;fillColor=#d5e8d4;strokeColor=#82b366;" vertex="1" parent="1">
                    <mxGeometry x="570" y="510" width="340" height="180" as="geometry"/>
                </mxCell>
                <mxCell id="9" value="Business Logic" style="swimlane;startSize=20;" vertex="1" parent="7">
                    <mxGeometry y="20" width="170" height="160" as="geometry"/>
                </mxCell>
                <mxCell id="10" value="Model" style="swimlane;startSize=20;" vertex="1" parent="7">
                    <mxGeometry x="170" y="20" width="170" height="160" as="geometry"/>
                </mxCell>
                <mxCell id="15" value="Actor" style="shape=umlActor;verticalLabelPosition=bottom;verticalAlign=top;html=1;outlineConnect=0;" vertex="1" parent="1">
                    <mxGeometry x="20" y="60" width="30" height="60" as="geometry"/>
                </mxCell>
                <mxCell id="16" value="" style="endArrow=classic;html=1;" edge="1" parent="1">
                    <mxGeometry width="50" height="50" relative="1" as="geometry">
                        <mxPoint x="60" y="90" as="sourcePoint"/>
                        <mxPoint x="100" y="90" as="targetPoint"/>
                    </mxGeometry>
                </mxCell>
                <mxCell id="38" value="Ophalen Ingredienten" style="swimlane;childLayout=stackLayout;resizeParent=1;resizeParentMax=0;startSize=20;fillColor=#ffe6cc;strokeColor=#d79b00;" vertex="1" parent="1">
                    <mxGeometry x="570" y="710" width="340" height="180" as="geometry"/>
                </mxCell>
                <mxCell id="39" value="Business Logic" style="swimlane;startSize=20;" vertex="1" parent="38">
                    <mxGeometry y="20" width="170" height="160" as="geometry"/>
                </mxCell>
                <mxCell id="55" value="Selecteer Artikelen" style="rounded=1;whiteSpace=wrap;html=1;" vertex="1" parent="39">
                    <mxGeometry x="4" y="70" width="80" height="40" as="geometry"/>
                </mxCell>
                <mxCell id="68" value="" style="endArrow=classic;html=1;entryX=1;entryY=0.5;entryDx=0;entryDy=0;" edge="1" parent="39" target="55">
                    <mxGeometry width="50" height="50" relative="1" as="geometry">
                        <mxPoint x="216" y="90" as="sourcePoint"/>
                        <mxPoint x="125" y="89.5" as="targetPoint"/>
                    </mxGeometry>
                </mxCell>
                <mxCell id="168" value="" style="endArrow=none;dashed=1;html=1;dashPattern=1 3;strokeWidth=2;entryX=0.49;entryY=0.12;entryDx=0;entryDy=0;entryPerimeter=0;exitX=0.5;exitY=1;exitDx=0;exitDy=0;" edge="1" parent="39">
                    <mxGeometry width="50" height="50" relative="1" as="geometry">
                        <mxPoint x="87.69999999999993" y="160.4000000000001" as="sourcePoint"/>
                        <mxPoint x="85.99999999999989" y="19.59999999999991" as="targetPoint"/>
                    </mxGeometry>
                </mxCell>
                <mxCell id="41" value="Model" style="swimlane;startSize=20;" vertex="1" parent="38">
                    <mxGeometry x="170" y="20" width="170" height="160" as="geometry"/>
                </mxCell>
                <mxCell id="69" value="Artikelen" style="swimlane;" vertex="1" parent="41">
                    <mxGeometry x="45" y="60" width="80" height="60" as="geometry"/>
                </mxCell>
                <mxCell id="61" value="Ophalen Ingredienten" style="swimlane;childLayout=stackLayout;resizeParent=1;resizeParentMax=0;startSize=20;fillColor=#ffe6cc;strokeColor=#d79b00;" vertex="1" parent="1">
                    <mxGeometry x="84" y="710" width="340" height="180" as="geometry"/>
                </mxCell>
                <mxCell id="62" value="Business Logic" style="swimlane;startSize=20;" vertex="1" parent="61">
                    <mxGeometry y="20" width="170" height="160" as="geometry"/>
                </mxCell>
                <mxCell id="63" value="Selecteer ingredienten" style="rounded=1;whiteSpace=wrap;html=1;" vertex="1" parent="62">
                    <mxGeometry x="3" y="70" width="80" height="40" as="geometry"/>
                </mxCell>
                <mxCell id="65" value="" style="endArrow=classic;html=1;" edge="1" parent="62">
                    <mxGeometry width="50" height="50" relative="1" as="geometry">
                        <mxPoint x="65" y="69" as="sourcePoint"/>
                        <mxPoint x="105" y="69" as="targetPoint"/>
                        <Array as="points">
                            <mxPoint x="65" y="49"/>
                            <mxPoint x="105" y="49"/>
                        </Array>
                    </mxGeometry>
                </mxCell>
                <mxCell id="64" value="Ophalen artikelen" style="rounded=1;whiteSpace=wrap;html=1;" vertex="1" parent="62">
                    <mxGeometry x="86" y="70" width="80" height="40" as="geometry"/>
                </mxCell>
                <mxCell id="91" value="" style="edgeStyle=segmentEdgeStyle;endArrow=classic;html=1;" edge="1" parent="62" target="63">
                    <mxGeometry width="50" height="50" relative="1" as="geometry">
                        <mxPoint x="216" y="40" as="sourcePoint"/>
                        <mxPoint x="166" y="90" as="targetPoint"/>
                    </mxGeometry>
                </mxCell>
                <mxCell id="93" value="" style="endArrow=classic;html=1;" edge="1" parent="62">
                    <mxGeometry width="50" height="50" relative="1" as="geometry">
                        <mxPoint x="217" y="120" as="sourcePoint"/>
                        <mxPoint x="166" y="90" as="targetPoint"/>
                    </mxGeometry>
                </mxCell>
                <mxCell id="167" value="" style="endArrow=none;dashed=1;html=1;dashPattern=1 3;strokeWidth=2;entryX=0.49;entryY=0.12;entryDx=0;entryDy=0;entryPerimeter=0;exitX=0.5;exitY=1;exitDx=0;exitDy=0;" edge="1" parent="62">
                    <mxGeometry width="50" height="50" relative="1" as="geometry">
                        <mxPoint x="85.85" y="160.39999999999998" as="sourcePoint"/>
                        <mxPoint x="84.14999999999995" y="19.600000000000023" as="targetPoint"/>
                    </mxGeometry>
                </mxCell>
                <mxCell id="66" value="Model" style="swimlane;startSize=20;" vertex="1" parent="61">
                    <mxGeometry x="170" y="20" width="170" height="160" as="geometry"/>
                </mxCell>
                <mxCell id="83" value="Ingredienten" style="swimlane;startSize=23;" vertex="1" parent="66">
                    <mxGeometry x="45" y="30" width="80" height="60" as="geometry"/>
                </mxCell>
                <mxCell id="92" value="Selecteer artikelen" style="rounded=1;whiteSpace=wrap;html=1;" vertex="1" parent="66">
                    <mxGeometry x="45" y="100" width="80" height="40" as="geometry"/>
                </mxCell>
                <mxCell id="109" value="Ophalen Info" style="swimlane;childLayout=stackLayout;resizeParent=1;resizeParentMax=0;startSize=20;fillColor=#e1d5e7;strokeColor=#9673a6;" vertex="1" parent="1">
                    <mxGeometry x="84" y="910" width="340" height="180" as="geometry"/>
                </mxCell>
                <mxCell id="110" value="Business Logic" style="swimlane;startSize=20;" vertex="1" parent="109">
                    <mxGeometry y="20" width="170" height="160" as="geometry"/>
                </mxCell>
                <mxCell id="126" value="Selecteer info" style="rounded=1;whiteSpace=wrap;html=1;" vertex="1" parent="110">
                    <mxGeometry x="3" y="69" width="80" height="40" as="geometry"/>
                </mxCell>
                <mxCell id="127" value="" style="endArrow=classic;html=1;" edge="1" parent="110">
                    <mxGeometry width="50" height="50" relative="1" as="geometry">
                        <mxPoint x="65" y="68" as="sourcePoint"/>
                        <mxPoint x="105" y="68" as="targetPoint"/>
                        <Array as="points">
                            <mxPoint x="65" y="48"/>
                            <mxPoint x="105" y="48"/>
                        </Array>
                    </mxGeometry>
                </mxCell>
                <mxCell id="128" value="Ophalen&lt;br&gt;User" style="rounded=1;whiteSpace=wrap;html=1;" vertex="1" parent="110">
                    <mxGeometry x="86" y="69" width="80" height="40" as="geometry"/>
                </mxCell>
                <mxCell id="129" value="" style="edgeStyle=segmentEdgeStyle;endArrow=classic;html=1;" edge="1" parent="110" target="126">
                    <mxGeometry width="50" height="50" relative="1" as="geometry">
                        <mxPoint x="216" y="39" as="sourcePoint"/>
                        <mxPoint x="82" y="-641" as="targetPoint"/>
                    </mxGeometry>
                </mxCell>
                <mxCell id="169" value="" style="endArrow=none;dashed=1;html=1;dashPattern=1 3;strokeWidth=2;entryX=0.49;entryY=0.12;entryDx=0;entryDy=0;entryPerimeter=0;exitX=0.5;exitY=1;exitDx=0;exitDy=0;" edge="1" parent="110">
                    <mxGeometry width="50" height="50" relative="1" as="geometry">
                        <mxPoint x="85.99999999999983" y="160" as="sourcePoint"/>
                        <mxPoint x="84.30000000000001" y="19.199999999999932" as="targetPoint"/>
                    </mxGeometry>
                </mxCell>
                <mxCell id="112" value="Model" style="swimlane;startSize=20;" vertex="1" parent="109">
                    <mxGeometry x="170" y="20" width="170" height="160" as="geometry"/>
                </mxCell>
                <mxCell id="123" value="Gerecht_Info" style="swimlane;startSize=23;" vertex="1" parent="112">
                    <mxGeometry x="45" y="30" width="80" height="60" as="geometry"/>
                </mxCell>
                <mxCell id="164" value="B, W, O, F" style="text;html=1;align=center;verticalAlign=middle;resizable=0;points=[];autosize=1;strokeColor=none;fillColor=none;" vertex="1" parent="123">
                    <mxGeometry x="5" y="30" width="70" height="20" as="geometry"/>
                </mxCell>
                <mxCell id="130" value="Selecteer&lt;br&gt;User" style="rounded=1;whiteSpace=wrap;html=1;" vertex="1" parent="112">
                    <mxGeometry x="46" y="100" width="80" height="40" as="geometry"/>
                </mxCell>
                <mxCell id="154" value="" style="endArrow=classic;html=1;" edge="1" parent="112">
                    <mxGeometry width="50" height="50" relative="1" as="geometry">
                        <mxPoint x="46" y="120" as="sourcePoint"/>
                        <mxPoint x="-5" y="90" as="targetPoint"/>
                    </mxGeometry>
                </mxCell>
                <mxCell id="142" value="Ophalen Ingredienten" style="swimlane;childLayout=stackLayout;resizeParent=1;resizeParentMax=0;startSize=20;fillColor=#e1d5e7;strokeColor=#9673a6;" vertex="1" parent="1">
                    <mxGeometry x="570" y="900" width="340" height="180" as="geometry"/>
                </mxCell>
                <mxCell id="143" value="Business Logic" style="swimlane;startSize=20;" vertex="1" parent="142">
                    <mxGeometry y="20" width="170" height="160" as="geometry"/>
                </mxCell>
                <mxCell id="144" value="Selecteer User" style="rounded=1;whiteSpace=wrap;html=1;" vertex="1" parent="143">
                    <mxGeometry x="2" y="70" width="80" height="40" as="geometry"/>
                </mxCell>
                <mxCell id="145" value="" style="endArrow=classic;html=1;entryX=1;entryY=0.5;entryDx=0;entryDy=0;" edge="1" parent="143" target="144">
                    <mxGeometry width="50" height="50" relative="1" as="geometry">
                        <mxPoint x="216" y="90" as="sourcePoint"/>
                        <mxPoint x="125" y="89.5" as="targetPoint"/>
                    </mxGeometry>
                </mxCell>
                <mxCell id="170" value="" style="endArrow=none;dashed=1;html=1;dashPattern=1 3;strokeWidth=2;entryX=0.49;entryY=0.12;entryDx=0;entryDy=0;entryPerimeter=0;exitX=0.5;exitY=1;exitDx=0;exitDy=0;" edge="1" parent="143">
                    <mxGeometry width="50" height="50" relative="1" as="geometry">
                        <mxPoint x="87.69999999999982" y="160" as="sourcePoint"/>
                        <mxPoint x="86" y="19.199999999999818" as="targetPoint"/>
                    </mxGeometry>
                </mxCell>
                <mxCell id="146" value="Model" style="swimlane;startSize=20;" vertex="1" parent="142">
                    <mxGeometry x="170" y="20" width="170" height="160" as="geometry"/>
                </mxCell>
                <mxCell id="147" value="User" style="swimlane;" vertex="1" parent="146">
                    <mxGeometry x="45" y="60" width="80" height="60" as="geometry"/>
                </mxCell>
                <mxCell id="149" value="" style="endArrow=classic;html=1;entryX=1;entryY=0.5;entryDx=0;entryDy=0;" edge="1" parent="1">
                    <mxGeometry width="50" height="50" relative="1" as="geometry">
                        <mxPoint x="704" y="381" as="sourcePoint"/>
                        <mxPoint x="584" y="361" as="targetPoint"/>
                    </mxGeometry>
                </mxCell>
                <mxCell id="150" value="" style="endArrow=classic;html=1;entryX=1;entryY=0.5;entryDx=0;entryDy=0;" edge="1" parent="1">
                    <mxGeometry width="50" height="50" relative="1" as="geometry">
                        <mxPoint x="704" y="381" as="sourcePoint"/>
                        <mxPoint x="584" y="411" as="targetPoint"/>
                    </mxGeometry>
                </mxCell>
                <mxCell id="151" value="" style="endArrow=classic;html=1;entryX=1;entryY=0.5;entryDx=0;entryDy=0;" edge="1" parent="1">
                    <mxGeometry width="50" height="50" relative="1" as="geometry">
                        <mxPoint x="704" y="381" as="sourcePoint"/>
                        <mxPoint x="584" y="461" as="targetPoint"/>
                    </mxGeometry>
                </mxCell>
                <mxCell id="152" value="" style="endArrow=classic;html=1;" edge="1" parent="1">
                    <mxGeometry width="50" height="50" relative="1" as="geometry">
                        <mxPoint x="144" y="130" as="sourcePoint"/>
                        <mxPoint x="144" y="210" as="targetPoint"/>
                    </mxGeometry>
                </mxCell>
                <mxCell id="161" value="" style="endArrow=classic;html=1;entryX=0;entryY=0.5;entryDx=0;entryDy=0;" edge="1" parent="1" target="95">
                    <mxGeometry width="50" height="50" relative="1" as="geometry">
                        <mxPoint x="310" y="260" as="sourcePoint"/>
                        <mxPoint x="514" y="321" as="targetPoint"/>
                    </mxGeometry>
                </mxCell>
                <mxCell id="171" value="" style="endArrow=classic;html=1;" edge="1" parent="1">
                    <mxGeometry width="50" height="50" relative="1" as="geometry">
                        <mxPoint x="60" y="440" as="sourcePoint"/>
                        <mxPoint x="100" y="440" as="targetPoint"/>
                    </mxGeometry>
                </mxCell>
                <mxCell id="172" value="" style="ellipse;whiteSpace=wrap;html=1;aspect=fixed;fillColor=#d5e8d4;strokeColor=#82b366;" vertex="1" parent="1">
                    <mxGeometry x="20" y="426" width="30" height="30" as="geometry"/>
                </mxCell>
                <mxCell id="175" value="Ophalen Keuken" style="swimlane;childLayout=stackLayout;resizeParent=1;resizeParentMax=0;startSize=20;fillColor=#d5e8d4;strokeColor=#82b366;" vertex="1" parent="1">
                    <mxGeometry x="84" y="510" width="440" height="160" as="geometry"/>
                </mxCell>
                <mxCell id="176" value="Controller" style="swimlane;startSize=20;" vertex="1" parent="175">
                    <mxGeometry y="20" width="100" height="140" as="geometry"/>
                </mxCell>
                <mxCell id="177" value="Business Logic" style="swimlane;startSize=20;" vertex="1" parent="175">
                    <mxGeometry x="100" y="20" width="170" height="140" as="geometry"/>
                </mxCell>
                <mxCell id="37" value="Selecteer KeukenType" style="rounded=1;whiteSpace=wrap;html=1;" vertex="1" parent="177">
                    <mxGeometry x="5" y="60" width="80" height="40" as="geometry"/>
                </mxCell>
                <mxCell id="166" value="" style="endArrow=none;dashed=1;html=1;dashPattern=1 3;strokeWidth=2;entryX=0.49;entryY=0.12;entryDx=0;entryDy=0;entryPerimeter=0;exitX=0.5;exitY=1;exitDx=0;exitDy=0;" edge="1" parent="177">
                    <mxGeometry width="50" height="50" relative="1" as="geometry">
                        <mxPoint x="88" y="160" as="sourcePoint"/>
                        <mxPoint x="86.30000000000018" y="19.200000000000045" as="targetPoint"/>
                    </mxGeometry>
                </mxCell>
                <mxCell id="178" value="Model" style="swimlane;startSize=20;" vertex="1" parent="175">
                    <mxGeometry x="270" y="20" width="170" height="140" as="geometry"/>
                </mxCell>
                <mxCell id="51" value="KeukenType" style="swimlane;" vertex="1" parent="178">
                    <mxGeometry x="45" y="40" width="80" height="60" as="geometry"/>
                </mxCell>
                <mxCell id="156" value="" style="edgeStyle=none;html=1;" edge="1" parent="178">
                    <mxGeometry relative="1" as="geometry">
                        <mxPoint x="45" y="69.5" as="sourcePoint"/>
                        <mxPoint x="-84" y="70" as="targetPoint"/>
                    </mxGeometry>
                </mxCell>
            </root>
        </mxGraphModel>
    </diagram>
</mxfile>